<?xml version="1.0" standalone="no"?>
<!DOCTYPE svg PUBLIC "-//W3C//DTD SVG 20010904//EN"
 "http://www.w3.org/TR/2001/REC-SVG-20010904/DTD/svg10.dtd">
<svg version="1.0" xmlns="http://www.w3.org/2000/svg"
 width="24.000000pt" height="24.000000pt" viewBox="0 0 24.000000 24.000000"
 preserveAspectRatio="xMidYMid meet">
<metadata>
Created by potrace 1.15, written by Peter Selinger 2001-2017
</metadata>
<g transform="translate(0.000000,24.000000) scale(0.100000,-0.100000)"
fill="#000000" stroke="none">
<path d="M73 205 c-28 -29 -33 -42 -33 -83 0 -32 -5 -54 -15 -62 -25 -21 -17
-30 24 -30 25 0 41 -5 45 -15 7 -19 45 -19 52 0 4 10 20 15 45 15 41 0 49 9
24 30 -10 8 -15 30 -15 62 0 42 -5 53 -35 83 -19 19 -40 35 -47 34 -7 0 -28
-16 -45 -34z"/>
</g>
</svg>
